<svg xmlns="http://www.w3.org/2000/svg" viewBox="-20 -10 340 450" width="600" height="794"><g>
  <ellipse cx="128" cy="402" rx="26" ry="11" fill="#18191d" stroke="#fff" stroke-width="30" stroke-linejoin="round"/><ellipse cx="172" cy="402" rx="26" ry="11" fill="#18191d" stroke="#fff" stroke-width="30" stroke-linejoin="round"/>
  <rect x="110" y="318" width="34" height="84" rx="12" fill="#d8c3a0" stroke="#fff" stroke-width="30" stroke-linejoin="round"/><rect x="156" y="318" width="34" height="84" rx="12" fill="#d8c3a0" stroke="#fff" stroke-width="30" stroke-linejoin="round"/>
  <rect x="88" y="200" width="124" height="135" rx="44" fill="#2b3a67" stroke="#fff" stroke-width="30" stroke-linejoin="round"/>
  <path d="M130 202 L150 236 L170 202 Z" fill="#ffffff" stroke="#fff" stroke-width="30" stroke-linejoin="round"/>
  <path d="M98 230 Q70 270 104 286" fill="none" stroke="#fff" stroke-width="56" stroke-linecap="round"/>
  <path d="M202 230 Q230 270 196 286" fill="none" stroke="#fff" stroke-width="56" stroke-linecap="round"/>
  <g transform="rotate(-4 150.0 276.0)"><rect x="92" y="232" width="116" height="88" rx="6" fill="#fff" stroke="#fff" stroke-width="30" stroke-linejoin="round"/><rect x="92" y="232" width="116" height="10" rx="5" fill="#ff5a00"/><rect x="104" y="254" width="92" height="5" rx="2.5" fill="#c9ccd3"/><rect x="104" y="267" width="92" height="5" rx="2.5" fill="#c9ccd3"/><rect x="104" y="280" width="92" height="5" rx="2.5" fill="#c9ccd3"/><rect x="104" y="293" width="74" height="5" rx="2.5" fill="#c9ccd3"/></g>
  <circle cx="98" cy="282" r="15" fill="#f6d2b5" stroke="#fff" stroke-width="30" stroke-linejoin="round"/><circle cx="202" cy="276" r="15" fill="#f6d2b5" stroke="#fff" stroke-width="30" stroke-linejoin="round"/>
  <circle cx="150" cy="118" r="88" fill="#f6d2b5" stroke="#fff" stroke-width="30" stroke-linejoin="round"/>
  <path d="M64 118 Q60 30 150 28 Q240 30 236 118 Q226 78 196 70 Q178 92 140 80 Q110 92 84 84 Q70 96 64 118 Z" fill="#23262d" stroke="#fff" stroke-width="30" stroke-linejoin="round"/>
  <path d="M104 98 Q118 84 132 96" fill="none" stroke="#18191d" stroke-width="6" stroke-linecap="round"/>
  <path d="M168 96 Q182 84 196 98" fill="none" stroke="#18191d" stroke-width="6" stroke-linecap="round"/>
  <circle cx="120" cy="126" r="17" fill="#fff" stroke="#fff" stroke-width="30" stroke-linejoin="round"/><circle cx="180" cy="126" r="17" fill="#fff" stroke="#fff" stroke-width="30" stroke-linejoin="round"/>
  <circle cx="120" cy="128" r="6" fill="#18191d"/><circle cx="180" cy="128" r="6" fill="#18191d"/>
  <ellipse cx="150" cy="172" rx="13" ry="17" fill="#7a2b2b" stroke="#fff" stroke-width="30" stroke-linejoin="round"/>
  <path d="M244 70 q10 16 0 22 q-10 -6 0 -22Z" fill="#8ecbff" stroke="#fff" stroke-width="30" stroke-linejoin="round"/><path d="M258 104 q8 13 0 18 q-8 -5 0 -18Z" fill="#8ecbff" stroke="#fff" stroke-width="30" stroke-linejoin="round"/><path d="M48 92 q8 13 0 18 q-8 -5 0 -18Z" fill="#8ecbff" stroke="#fff" stroke-width="30" stroke-linejoin="round"/></g><g>
  <ellipse cx="128" cy="402" rx="26" ry="11" fill="#18191d" stroke="#18191d" stroke-width="5" stroke-linejoin="round"/><ellipse cx="172" cy="402" rx="26" ry="11" fill="#18191d" stroke="#18191d" stroke-width="5" stroke-linejoin="round"/>
  <rect x="110" y="318" width="34" height="84" rx="12" fill="#d8c3a0" stroke="#18191d" stroke-width="5" stroke-linejoin="round"/><rect x="156" y="318" width="34" height="84" rx="12" fill="#d8c3a0" stroke="#18191d" stroke-width="5" stroke-linejoin="round"/>
  <rect x="88" y="200" width="124" height="135" rx="44" fill="#2b3a67" stroke="#18191d" stroke-width="5" stroke-linejoin="round"/>
  <path d="M130 202 L150 236 L170 202 Z" fill="#ffffff" stroke="#18191d" stroke-width="5" stroke-linejoin="round"/>
  <path d="M98 230 Q70 270 104 286" fill="none" stroke="#18191d" stroke-width="36" stroke-linecap="round"/>
  <path d="M202 230 Q230 270 196 286" fill="none" stroke="#18191d" stroke-width="36" stroke-linecap="round"/>
  <g transform="rotate(-4 150.0 276.0)"><rect x="92" y="232" width="116" height="88" rx="6" fill="#fff" stroke="#18191d" stroke-width="5" stroke-linejoin="round"/><rect x="92" y="232" width="116" height="10" rx="5" fill="#ff5a00"/><rect x="104" y="254" width="92" height="5" rx="2.5" fill="#c9ccd3"/><rect x="104" y="267" width="92" height="5" rx="2.5" fill="#c9ccd3"/><rect x="104" y="280" width="92" height="5" rx="2.5" fill="#c9ccd3"/><rect x="104" y="293" width="74" height="5" rx="2.5" fill="#c9ccd3"/></g>
  <circle cx="98" cy="282" r="15" fill="#f6d2b5" stroke="#18191d" stroke-width="5" stroke-linejoin="round"/><circle cx="202" cy="276" r="15" fill="#f6d2b5" stroke="#18191d" stroke-width="5" stroke-linejoin="round"/>
  <circle cx="150" cy="118" r="88" fill="#f6d2b5" stroke="#18191d" stroke-width="5" stroke-linejoin="round"/>
  <path d="M64 118 Q60 30 150 28 Q240 30 236 118 Q226 78 196 70 Q178 92 140 80 Q110 92 84 84 Q70 96 64 118 Z" fill="#23262d" stroke="#18191d" stroke-width="5" stroke-linejoin="round"/>
  <path d="M104 98 Q118 84 132 96" fill="none" stroke="#18191d" stroke-width="6" stroke-linecap="round"/>
  <path d="M168 96 Q182 84 196 98" fill="none" stroke="#18191d" stroke-width="6" stroke-linecap="round"/>
  <circle cx="120" cy="126" r="17" fill="#fff" stroke="#18191d" stroke-width="5" stroke-linejoin="round"/><circle cx="180" cy="126" r="17" fill="#fff" stroke="#18191d" stroke-width="5" stroke-linejoin="round"/>
  <circle cx="120" cy="128" r="6" fill="#18191d"/><circle cx="180" cy="128" r="6" fill="#18191d"/>
  <ellipse cx="150" cy="172" rx="13" ry="17" fill="#7a2b2b" stroke="#18191d" stroke-width="5" stroke-linejoin="round"/>
  <path d="M244 70 q10 16 0 22 q-10 -6 0 -22Z" fill="#8ecbff" stroke="#18191d" stroke-width="5" stroke-linejoin="round"/><path d="M258 104 q8 13 0 18 q-8 -5 0 -18Z" fill="#8ecbff" stroke="#18191d" stroke-width="5" stroke-linejoin="round"/><path d="M48 92 q8 13 0 18 q-8 -5 0 -18Z" fill="#8ecbff" stroke="#18191d" stroke-width="5" stroke-linejoin="round"/></g><g>
  <ellipse cx="128" cy="402" rx="26" ry="11" fill="#18191d" stroke="#18191d" stroke-width="5" stroke-linejoin="round"/><ellipse cx="172" cy="402" rx="26" ry="11" fill="#18191d" stroke="#18191d" stroke-width="5" stroke-linejoin="round"/>
  <rect x="110" y="318" width="34" height="84" rx="12" fill="#d8c3a0" stroke="#18191d" stroke-width="5" stroke-linejoin="round"/><rect x="156" y="318" width="34" height="84" rx="12" fill="#d8c3a0" stroke="#18191d" stroke-width="5" stroke-linejoin="round"/>
  <rect x="88" y="200" width="124" height="135" rx="44" fill="#2b3a67" stroke="#18191d" stroke-width="5" stroke-linejoin="round"/>
  <path d="M130 202 L150 236 L170 202 Z" fill="#ffffff" stroke="#18191d" stroke-width="5" stroke-linejoin="round"/>
  <path d="M98 230 Q70 270 104 286" fill="none" stroke="#2b3a67" stroke-width="26" stroke-linecap="round"/>
  <path d="M202 230 Q230 270 196 286" fill="none" stroke="#2b3a67" stroke-width="26" stroke-linecap="round"/>
  <g transform="rotate(-4 150.0 276.0)"><rect x="92" y="232" width="116" height="88" rx="6" fill="#fff" stroke="#18191d" stroke-width="5" stroke-linejoin="round"/><rect x="92" y="232" width="116" height="10" rx="5" fill="#ff5a00"/><rect x="104" y="254" width="92" height="5" rx="2.5" fill="#c9ccd3"/><rect x="104" y="267" width="92" height="5" rx="2.5" fill="#c9ccd3"/><rect x="104" y="280" width="92" height="5" rx="2.5" fill="#c9ccd3"/><rect x="104" y="293" width="74" height="5" rx="2.5" fill="#c9ccd3"/></g>
  <circle cx="98" cy="282" r="15" fill="#f6d2b5" stroke="#18191d" stroke-width="5" stroke-linejoin="round"/><circle cx="202" cy="276" r="15" fill="#f6d2b5" stroke="#18191d" stroke-width="5" stroke-linejoin="round"/>
  <circle cx="150" cy="118" r="88" fill="#f6d2b5" stroke="#18191d" stroke-width="5" stroke-linejoin="round"/>
  <path d="M64 118 Q60 30 150 28 Q240 30 236 118 Q226 78 196 70 Q178 92 140 80 Q110 92 84 84 Q70 96 64 118 Z" fill="#23262d" stroke="#18191d" stroke-width="5" stroke-linejoin="round"/>
  <path d="M104 98 Q118 84 132 96" fill="none" stroke="#18191d" stroke-width="6" stroke-linecap="round"/>
  <path d="M168 96 Q182 84 196 98" fill="none" stroke="#18191d" stroke-width="6" stroke-linecap="round"/>
  <circle cx="120" cy="126" r="17" fill="#fff" stroke="#18191d" stroke-width="5" stroke-linejoin="round"/><circle cx="180" cy="126" r="17" fill="#fff" stroke="#18191d" stroke-width="5" stroke-linejoin="round"/>
  <circle cx="120" cy="128" r="6" fill="#18191d"/><circle cx="180" cy="128" r="6" fill="#18191d"/>
  <ellipse cx="150" cy="172" rx="13" ry="17" fill="#7a2b2b" stroke="#18191d" stroke-width="5" stroke-linejoin="round"/>
  <path d="M244 70 q10 16 0 22 q-10 -6 0 -22Z" fill="#8ecbff" stroke="#18191d" stroke-width="5" stroke-linejoin="round"/><path d="M258 104 q8 13 0 18 q-8 -5 0 -18Z" fill="#8ecbff" stroke="#18191d" stroke-width="5" stroke-linejoin="round"/><path d="M48 92 q8 13 0 18 q-8 -5 0 -18Z" fill="#8ecbff" stroke="#18191d" stroke-width="5" stroke-linejoin="round"/></g></svg>