<svg xmlns="http://www.w3.org/2000/svg" width="512" height="512" viewBox="0 0 512 512">
<title>아파트</title>
<g stroke-linejoin="round" stroke-linecap="round"><rect x="300" y="150" width="140" height="276" rx="8" fill="#ffffff" stroke="#ffffff" stroke-width="40"/><path d="M300 196 H440" stroke="#ffffff" stroke-width="36" fill="none"/><path d="M300 242 H440" stroke="#ffffff" stroke-width="36" fill="none"/><path d="M300 288 H440" stroke="#ffffff" stroke-width="36" fill="none"/><path d="M300 334 H440" stroke="#ffffff" stroke-width="36" fill="none"/><path d="M300 380 H440" stroke="#ffffff" stroke-width="36" fill="none"/><text x="384" y="184" text-anchor="middle" font-family="Pretendard, Arial, sans-serif" font-weight="800" font-size="34" fill="#ffffff">101</text><rect x="158" y="42" width="84" height="44" rx="6" fill="#ffffff" stroke="#ffffff" stroke-width="40"/><rect x="80" y="80" width="240" height="346" rx="8" fill="#ffffff" stroke="#ffffff" stroke-width="40"/><path d="M80 134 H320" stroke="#ffffff" stroke-width="40" fill="none"/><rect x="104" y="104" width="48" height="20" rx="4" fill="#ffffff" stroke="#ffffff" stroke-width="26"/><rect x="176" y="104" width="48" height="20" rx="4" fill="#ffffff" stroke="#ffffff" stroke-width="26"/><rect x="248" y="104" width="48" height="20" rx="4" fill="#ffffff" stroke="#ffffff" stroke-width="26"/><path d="M80 178 H320" stroke="#ffffff" stroke-width="40" fill="none"/><rect x="104" y="148" width="48" height="20" rx="4" fill="#ffffff" stroke="#ffffff" stroke-width="26"/><rect x="176" y="148" width="48" height="20" rx="4" fill="#ffffff" stroke="#ffffff" stroke-width="26"/><rect x="248" y="148" width="48" height="20" rx="4" fill="#ffffff" stroke="#ffffff" stroke-width="26"/><path d="M80 222 H320" stroke="#ffffff" stroke-width="40" fill="none"/><rect x="104" y="192" width="48" height="20" rx="4" fill="#ffffff" stroke="#ffffff" stroke-width="26"/><rect x="176" y="192" width="48" height="20" rx="4" fill="#ffffff" stroke="#ffffff" stroke-width="26"/><rect x="248" y="192" width="48" height="20" rx="4" fill="#ffffff" stroke="#ffffff" stroke-width="26"/><path d="M80 266 H320" stroke="#ffffff" stroke-width="40" fill="none"/><rect x="104" y="236" width="48" height="20" rx="4" fill="#ffffff" stroke="#ffffff" stroke-width="26"/><rect x="176" y="236" width="48" height="20" rx="4" fill="#ffffff" stroke="#ffffff" stroke-width="26"/><rect x="248" y="236" width="48" height="20" rx="4" fill="#ffffff" stroke="#ffffff" stroke-width="26"/><path d="M80 310 H320" stroke="#ffffff" stroke-width="40" fill="none"/><rect x="104" y="280" width="48" height="20" rx="4" fill="#ffffff" stroke="#ffffff" stroke-width="26"/><rect x="176" y="280" width="48" height="20" rx="4" fill="#ffffff" stroke="#ffffff" stroke-width="26"/><rect x="248" y="280" width="48" height="20" rx="4" fill="#ffffff" stroke="#ffffff" stroke-width="26"/><path d="M80 354 H320" stroke="#ffffff" stroke-width="40" fill="none"/><rect x="104" y="324" width="48" height="20" rx="4" fill="#ffffff" stroke="#ffffff" stroke-width="26"/><rect x="176" y="324" width="48" height="20" rx="4" fill="#ffffff" stroke="#ffffff" stroke-width="26"/><rect x="248" y="324" width="48" height="20" rx="4" fill="#ffffff" stroke="#ffffff" stroke-width="26"/><path d="M80 398 H320" stroke="#ffffff" stroke-width="40" fill="none"/><rect x="104" y="368" width="48" height="20" rx="4" fill="#ffffff" stroke="#ffffff" stroke-width="26"/><rect x="176" y="368" width="48" height="20" rx="4" fill="#ffffff" stroke="#ffffff" stroke-width="26"/><rect x="248" y="368" width="48" height="20" rx="4" fill="#ffffff" stroke="#ffffff" stroke-width="26"/><path d="M48 426 H464" stroke="#ffffff" stroke-width="40" fill="none"/></g>
<g stroke-linejoin="round" stroke-linecap="round"><rect x="300" y="150" width="140" height="276" rx="8" fill="#d0d4da" stroke="#18191d" stroke-width="14"/><path d="M300 196 H440" stroke="#18191d" stroke-width="10" fill="none"/><path d="M300 242 H440" stroke="#18191d" stroke-width="10" fill="none"/><path d="M300 288 H440" stroke="#18191d" stroke-width="10" fill="none"/><path d="M300 334 H440" stroke="#18191d" stroke-width="10" fill="none"/><path d="M300 380 H440" stroke="#18191d" stroke-width="10" fill="none"/><text x="384" y="184" text-anchor="middle" font-family="Pretendard, Arial, sans-serif" font-weight="800" font-size="34" fill="#18191d">101</text><rect x="158" y="42" width="84" height="44" rx="6" fill="#d0d4da" stroke="#18191d" stroke-width="14"/><rect x="80" y="80" width="240" height="346" rx="8" fill="#ffffff" stroke="#18191d" stroke-width="14"/><path d="M80 134 H320" stroke="#18191d" stroke-width="14" fill="none"/><rect x="104" y="104" width="48" height="20" rx="4" fill="#8a9099"/><rect x="176" y="104" width="48" height="20" rx="4" fill="#8a9099"/><rect x="248" y="104" width="48" height="20" rx="4" fill="#8a9099"/><path d="M80 178 H320" stroke="#18191d" stroke-width="14" fill="none"/><rect x="104" y="148" width="48" height="20" rx="4" fill="#8a9099"/><rect x="176" y="148" width="48" height="20" rx="4" fill="#8a9099"/><rect x="248" y="148" width="48" height="20" rx="4" fill="#8a9099"/><path d="M80 222 H320" stroke="#18191d" stroke-width="14" fill="none"/><rect x="104" y="192" width="48" height="20" rx="4" fill="#8a9099"/><rect x="176" y="192" width="48" height="20" rx="4" fill="#8a9099"/><rect x="248" y="192" width="48" height="20" rx="4" fill="#ffd400"/><path d="M80 266 H320" stroke="#18191d" stroke-width="14" fill="none"/><rect x="104" y="236" width="48" height="20" rx="4" fill="#8a9099"/><rect x="176" y="236" width="48" height="20" rx="4" fill="#8a9099"/><rect x="248" y="236" width="48" height="20" rx="4" fill="#8a9099"/><path d="M80 310 H320" stroke="#18191d" stroke-width="14" fill="none"/><rect x="104" y="280" width="48" height="20" rx="4" fill="#8a9099"/><rect x="176" y="280" width="48" height="20" rx="4" fill="#8a9099"/><rect x="248" y="280" width="48" height="20" rx="4" fill="#8a9099"/><path d="M80 354 H320" stroke="#18191d" stroke-width="14" fill="none"/><rect x="104" y="324" width="48" height="20" rx="4" fill="#8a9099"/><rect x="176" y="324" width="48" height="20" rx="4" fill="#8a9099"/><rect x="248" y="324" width="48" height="20" rx="4" fill="#8a9099"/><path d="M80 398 H320" stroke="#18191d" stroke-width="14" fill="none"/><rect x="104" y="368" width="48" height="20" rx="4" fill="#8a9099"/><rect x="176" y="368" width="48" height="20" rx="4" fill="#8a9099"/><rect x="248" y="368" width="48" height="20" rx="4" fill="#8a9099"/><path d="M48 426 H464" stroke="#18191d" stroke-width="14" fill="none"/></g>
</svg>