<svg width="1200" height="600" viewBox="0 0 1200 600" xmlns="http://www.w3.org/2000/svg">
<rect width="1200" height="600" fill="#18224d"/>
<svg x="497" y="92" width="30" height="60" viewBox="188 84 136 276"><path d="M256 84 C 232 150, 188 172, 188 256 C 188 322, 218 360, 256 360 C 294 360, 324 322, 324 256 C 324 212, 300 188, 286 162 C 282 192, 268 204, 252 210 C 268 166, 262 116, 256 84 Z" fill="#ff5a00"/><path d="M256 250 C 246 276, 232 286, 232 312 C 232 336, 242 352, 256 352 C 270 352, 280 336, 280 312 C 280 292, 270 280, 264 268 C 262 282, 258 286, 252 290 C 258 274, 258 262, 256 250 Z" fill="#fdba74"/></svg>
<text x="537" y="138" font-family="Arial, 'Noto Sans CJK KR', 'Noto Sans KR', 'Apple SD Gothic Neo', 'Malgun Gothic', sans-serif" font-weight="700" font-size="40" fill="#ffffff">파이어맵</text>
<text x="600" y="216" font-family="Arial, 'Noto Sans CJK KR', 'Noto Sans KR', 'Apple SD Gothic Neo', 'Malgun Gothic', sans-serif" font-weight="400" font-size="34" fill="#9aa4d4" text-anchor="middle">또래 중 내 파이어 등수도 1분 만에</text>
<text x="600" y="322" font-family="Arial, 'Noto Sans CJK KR', 'Noto Sans KR', 'Apple SD Gothic Neo', 'Malgun Gothic', sans-serif" font-weight="700" font-size="80" fill="#ffffff" text-anchor="middle">나는 몇 살에</text>
<text x="600" y="416" font-family="Arial, 'Noto Sans CJK KR', 'Noto Sans KR', 'Apple SD Gothic Neo', 'Malgun Gothic', sans-serif" font-weight="700" font-size="80" fill="#ffffff" text-anchor="middle"><tspan fill="#ff5a00">파이어</tspan>할 수 있을까?</text>
<text x="600" y="540" font-family="Arial, 'Noto Sans CJK KR', 'Noto Sans KR', 'Apple SD Gothic Neo', 'Malgun Gothic', sans-serif" font-weight="700" font-size="30" fill="#ffffff" text-anchor="middle">나도 1분 만에 확인  →  <tspan fill="#ff8a4c">firemap.kr</tspan></text>
</svg>